<svg version="1.1" id="Layer_1" xmlns="http://www.w3.org/2000/svg" xmlns:xlink="http://www.w3.org/1999/xlink" x="0px" y="0px"
	 width="100%" viewBox="0 0 122 120" enable-background="new 0 0 122 120" xml:space="preserve">
<path fill="#060606" opacity="1.000000" stroke="none" 
	d="
M74.000000,121.000000 
	C49.333332,121.000000 25.166666,121.000000 1.000000,121.000000 
	C1.000000,81.000000 1.000000,41.000000 1.000000,1.000000 
	C41.666668,1.000000 82.333336,1.000000 123.000000,1.000000 
	C123.000000,41.000000 123.000000,81.000000 123.000000,121.000000 
	C106.833336,121.000000 90.666664,121.000000 74.000000,121.000000 
M33.000591,31.000254 
	C33.000591,31.000254 32.982578,31.022182 32.902664,31.739824 
	C33.964520,32.808834 35.026375,33.877846 36.637093,35.320168 
	C39.826576,39.448303 43.016056,43.576439 46.120712,48.396038 
	C46.767937,48.918362 47.415165,49.440685 48.689583,50.436287 
	C51.581066,53.935684 52.215580,49.642517 54.597874,48.886303 
	C54.968151,48.121792 55.338428,47.357285 55.944645,46.016975 
	C56.720490,45.042614 57.496334,44.068253 58.907764,43.026512 
	C58.655891,41.992012 58.404022,40.957508 57.619617,39.516083 
	C54.248623,35.196880 50.877632,30.877676 47.742004,25.851950 
	C46.478424,24.577644 45.214840,23.303337 43.372440,21.658066 
	C37.939644,16.121666 33.593540,16.891747 30.105318,24.015177 
	C30.330883,25.034971 30.556448,26.054768 31.007509,27.581512 
	C31.086361,27.941837 31.165215,28.302160 31.140081,29.346361 
	C31.752560,29.902859 32.365040,30.459356 33.000591,31.000254 
M78.130493,88.329880 
	C78.781845,88.869431 79.433189,89.408981 80.550636,90.301537 
	C81.111031,91.093346 81.671425,91.885155 82.109543,93.366455 
	C82.751282,93.905373 83.393021,94.444290 84.458565,95.295395 
	C84.738091,95.733200 85.017609,96.170998 85.198067,97.372528 
	C86.318237,98.080109 87.438408,98.787682 89.248985,99.598351 
	C90.167480,99.741440 91.085968,99.884537 92.263245,100.463417 
	C92.891144,100.137337 93.519051,99.811256 94.631073,99.058517 
	C95.474113,98.399925 96.317154,97.741333 97.711433,97.093956 
	C97.866356,96.403877 98.021278,95.713799 98.214211,94.204597 
	C98.054024,92.588242 97.893837,90.971886 97.896759,88.670479 
	C97.274979,88.107697 96.653191,87.544914 95.583710,86.692726 
	C95.298820,86.249489 95.013939,85.806252 94.870224,84.665863 
	C93.930443,83.767670 92.990662,82.869476 91.589363,81.685959 
	C91.322586,81.222908 91.055817,80.759865 90.902771,79.607689 
	C90.247353,79.084610 89.591927,78.561531 88.442886,77.720032 
	C87.877876,76.928040 87.312866,76.136040 86.853050,74.654396 
	C86.226555,74.108124 85.600060,73.561859 84.476753,72.696114 
	C83.916695,71.893120 83.356628,71.090126 82.890839,69.595551 
	C82.237625,69.077675 81.584412,68.559792 80.431847,67.727524 
	C79.884232,66.917198 79.336617,66.106873 78.900864,64.618698 
	C78.268021,64.078682 77.635170,63.538673 76.446190,62.597237 
	C75.032883,62.499668 73.347664,61.879356 72.275284,62.437195 
	C70.942894,63.130287 70.117226,64.797508 68.376282,66.121590 
	C68.009712,66.875008 67.643143,67.628433 67.041222,68.939606 
	C66.642372,69.634903 66.243523,70.330208 65.379097,71.308914 
	C65.832237,71.905281 66.285385,72.501648 67.073769,73.320747 
	C67.073769,73.320747 67.213608,73.698158 67.114136,74.387955 
	C67.758553,74.915878 68.402977,75.443794 69.479218,76.271988 
	C69.760681,76.708633 70.042145,77.145279 70.179298,78.289238 
	C71.127556,79.188950 72.075813,80.088661 73.425018,81.329346 
	C73.701332,81.770485 73.977646,82.211632 74.125168,83.346413 
	C74.788864,83.873528 75.452560,84.400635 76.594162,85.264832 
	C77.150963,86.056587 77.707764,86.848343 78.130493,88.329880 
M83.016182,41.149773 
	C83.639038,40.408447 84.261894,39.667122 85.595291,38.921745 
	C85.969498,38.155697 86.343712,37.389648 86.890106,36.120815 
	C87.260254,35.747303 87.630402,35.373787 88.695122,34.966557 
	C89.066223,34.220154 89.437332,33.473751 90.091942,32.113747 
	C91.254066,30.129192 92.416199,28.144638 94.108467,25.971481 
	C93.863411,24.939182 93.618355,23.906883 93.049789,22.439819 
	C92.908028,22.109903 92.766258,21.779987 92.808083,20.738636 
	C92.121086,20.216835 91.434090,19.695032 90.091980,18.915661 
	C88.726768,18.602476 87.361565,18.289291 85.597305,17.525026 
	C84.413414,18.374346 83.229523,19.223665 81.726265,20.658684 
	C79.481445,23.437502 77.236633,26.216320 74.307137,29.037170 
	C73.938377,29.785233 73.569611,30.533295 72.991936,31.834351 
	C72.348915,32.569248 71.705902,33.304150 70.364670,34.060543 
	C69.992119,34.819756 69.619560,35.578964 69.065125,36.841434 
	C68.698410,37.222076 68.331688,37.602718 67.271416,38.017338 
	C66.913933,38.770878 66.556458,39.524422 65.972015,40.824444 
	C65.334686,41.562092 64.697357,42.299740 63.364204,43.064152 
	C62.986866,43.817074 62.609524,44.570000 61.977440,45.927090 
	C60.324429,47.955093 58.671417,49.983093 56.318455,52.054962 
	C55.957527,52.812435 55.596600,53.569908 55.005848,54.868137 
	C54.363396,55.595192 53.720940,56.322243 52.363533,57.080944 
	C52.011898,57.854633 51.660263,58.628319 51.110081,59.886452 
	C50.747616,60.261379 50.385151,60.636311 49.331295,61.075043 
	C48.962662,61.821274 48.594028,62.567505 47.993011,63.852699 
	C47.351334,64.582512 46.709660,65.312325 45.362656,66.100227 
	C45.009781,66.867050 44.656910,67.633865 44.072098,68.936890 
	C43.425499,69.653282 42.778904,70.369682 41.415794,71.119118 
	C41.048550,71.883774 40.681305,72.648438 40.117142,73.896866 
	C39.762199,74.275314 39.407261,74.653763 38.333988,75.080124 
	C37.671822,76.200699 37.009651,77.321266 36.161007,78.929039 
	C35.801991,79.300980 35.442974,79.672913 34.370804,80.087341 
	C34.017593,80.860794 33.664379,81.634239 33.012363,82.973732 
	C31.662607,84.643417 30.312849,86.313110 28.265459,88.054718 
	C26.671076,90.294952 24.800339,92.514221 28.020292,95.555870 
	C28.123287,95.899940 28.226284,96.244011 28.165819,97.277977 
	C29.777433,98.183563 31.389048,99.089149 33.938148,100.002785 
	C49.293186,100.002785 64.648224,100.002785 81.106659,100.002785 
	C78.891563,96.779793 77.350281,94.537209 75.925941,91.599915 
	C75.272278,91.073051 74.618614,90.546196 73.470787,89.719772 
	C72.993675,89.120834 72.516556,88.521904 71.882660,87.136322 
	C70.340233,86.781181 68.804047,86.155548 67.254242,86.119743 
	C61.807358,85.993919 56.355793,86.070885 50.815319,86.070885 
	C51.156288,84.330711 51.427952,82.944267 51.857319,81.063034 
	C52.216183,80.696327 52.575050,80.329620 53.638638,79.915100 
	C54.013351,79.153938 54.388065,78.392784 55.033127,77.025848 
	C57.703838,73.691803 60.374546,70.357758 63.726082,66.972664 
	C64.095505,66.227226 64.464935,65.481781 65.008667,64.167297 
	C65.677704,63.446964 66.346733,62.726627 67.735573,61.979130 
	C69.085617,59.878284 70.435654,57.777439 72.149429,55.113941 
	C75.077904,51.395702 78.006371,47.677464 81.635162,43.944576 
	C82.014709,43.191444 82.394257,42.438309 83.016182,41.149773 
z"/>
<path fill="#F0F0F0" opacity="1.000000" stroke="none" 
	d="
M42.132305,71.086075 
	C42.778904,70.369682 43.425499,69.653282 44.495174,68.575043 
	C45.301498,67.489510 45.684742,66.765823 46.067986,66.042137 
	C46.709660,65.312325 47.351334,64.582512 48.418564,63.499554 
	C49.236969,62.434685 49.629826,61.722961 50.022686,61.011242 
	C50.385151,60.636311 50.747616,60.261379 51.516708,59.552753 
	C52.308384,58.495800 52.693432,57.772545 53.078484,57.049294 
	C53.720940,56.322243 54.363396,55.595192 55.437202,54.532249 
	C56.251839,53.467941 56.635124,52.739517 57.018410,52.011097 
	C58.671417,49.983093 60.324429,47.955093 62.418198,45.557426 
	C63.259315,44.470970 63.659672,43.754181 64.060028,43.037388 
	C64.697357,42.299740 65.334686,41.562092 66.393005,40.468887 
	C67.197647,39.403339 67.581306,38.693348 67.964973,37.983360 
	C68.331688,37.602718 68.698410,37.222076 69.469055,36.513321 
	C70.269623,35.469822 70.666252,34.754436 71.062881,34.039051 
	C71.705902,33.304150 72.348915,32.569248 73.404938,31.479025 
	C74.209229,30.414179 74.600517,29.704659 74.991814,28.995136 
	C77.236633,26.216320 79.481445,23.437502 82.214531,20.355255 
	C83.800652,19.359922 84.898499,18.668015 85.996353,17.976109 
	C87.361565,18.289291 88.726768,18.602476 90.454910,19.354368 
	C91.420067,20.345407 92.022278,20.897739 92.624496,21.450071 
	C92.766258,21.779987 92.908028,22.109903 93.074341,23.063396 
	C93.258705,24.511345 93.418518,25.335714 93.578323,26.160084 
	C92.416199,28.144638 91.254066,30.129192 89.635986,32.485703 
	C88.786873,33.571865 88.393707,34.286068 88.000549,35.000275 
	C87.630402,35.373787 87.260254,35.747303 86.490875,36.448532 
	C85.689354,37.492764 85.287056,38.209282 84.884758,38.925800 
	C84.261894,39.667122 83.639038,40.408447 82.581635,41.486488 
	C81.743011,42.535206 81.338928,43.247215 80.934845,43.959221 
	C78.006371,47.677464 75.077904,51.395702 71.660362,55.530869 
	C69.786118,57.967289 68.400940,59.986790 67.015762,62.006287 
	C66.346733,62.726627 65.677704,63.446964 64.611496,64.529716 
	C63.824631,65.602661 63.434940,66.313179 63.045250,67.023705 
	C60.374546,70.357758 57.703838,73.691803 54.587502,77.417114 
	C53.739223,78.526558 53.336571,79.244736 52.933914,79.962914 
	C52.575050,80.329620 52.216183,80.696327 51.448177,81.441284 
	C49.899834,83.357750 48.760628,84.895958 47.621422,86.434166 
	C47.758556,86.930435 47.895691,87.426697 48.032822,87.922966 
	C56.035030,87.922966 64.037239,87.922966 72.039444,87.922966 
	C72.516556,88.521904 72.993675,89.120834 73.727211,90.188446 
	C74.592087,91.202957 75.200546,91.748787 75.808998,92.294624 
	C77.350281,94.537209 78.891563,96.779793 81.106659,100.002785 
	C64.648224,100.002785 49.293186,100.002785 33.271881,99.742744 
	C31.180168,98.517830 29.754726,97.552956 28.329281,96.588081 
	C28.226284,96.244011 28.123287,95.899940 27.988911,94.930405 
	C28.292715,92.197563 28.627905,90.090179 28.963093,87.982796 
	C30.312849,86.313110 31.662607,84.643417 33.467850,82.589996 
	C34.310207,81.485794 34.697083,80.765320 35.083958,80.044846 
	C35.442974,79.672913 35.801991,79.300980 36.572384,78.597153 
	C37.673283,77.187576 38.362801,76.109886 39.052322,75.032204 
	C39.407261,74.653763 39.762199,74.275314 40.529606,73.577332 
	C41.338814,72.533897 41.735561,71.809982 42.132305,71.086075 
z"/>
<path fill="#EFEFEF" opacity="1.000000" stroke="none" 
	d="
M97.160194,97.082748 
	C96.317154,97.741333 95.474113,98.399925 94.106819,99.167488 
	C93.056534,99.526848 92.530502,99.777245 92.004463,100.027634 
	C91.085968,99.884537 90.167480,99.741440 88.796768,99.242432 
	C87.328743,98.127274 86.312935,97.368042 85.297127,96.608803 
	C85.017609,96.170998 84.738091,95.733200 84.248764,94.818130 
	C83.436584,93.786224 82.834206,93.231598 82.231819,92.676964 
	C81.671425,91.885155 81.111031,91.093346 80.309761,89.804970 
	C79.467445,88.752304 78.865997,88.196198 78.264557,87.640099 
	C77.707764,86.848343 77.150963,86.056587 76.345551,84.775345 
	C75.482613,83.741493 74.868286,83.197128 74.253952,82.652771 
	C73.977646,82.211632 73.701332,81.770485 73.206985,80.830963 
	C72.100502,79.415688 71.212059,78.498810 70.323608,77.581924 
	C70.042145,77.145279 69.760681,76.708633 69.259735,75.802017 
	C68.431381,74.787407 67.822495,74.242783 67.213608,73.698158 
	C67.213608,73.698158 67.073769,73.320747 66.949303,72.909233 
	C66.498116,72.006981 66.171394,71.516243 65.844673,71.025505 
	C66.243523,70.330208 66.642372,69.634903 67.469330,68.569885 
	C68.289200,67.481453 68.680954,66.762726 69.072708,66.043999 
	C70.117226,64.797508 70.942894,63.130287 72.275284,62.437195 
	C73.347664,61.879356 75.032883,62.499668 76.729599,63.117390 
	C77.605003,64.190544 78.197006,64.743538 78.789001,65.296539 
	C79.336617,66.106873 79.884232,66.917198 80.690491,68.205856 
	C81.564949,69.218498 82.180756,69.752815 82.796570,70.287132 
	C83.356628,71.090126 83.916695,71.893120 84.722427,73.176956 
	C85.561356,74.219879 86.154610,74.781960 86.747856,75.344048 
	C87.312866,76.136040 87.877876,76.928040 88.695953,78.200417 
	C89.562363,79.219475 90.175705,79.758141 90.789040,80.296814 
	C91.055817,80.759865 91.322586,81.222908 91.833954,82.155197 
	C92.962051,83.537292 93.845551,84.450150 94.729057,85.363014 
	C95.013939,85.806252 95.298820,86.249489 95.801476,87.154892 
	C96.590714,88.196541 97.162178,88.776039 97.733650,89.355530 
	C97.893837,90.971886 98.054024,92.588242 97.941284,94.786240 
	C97.498978,95.939499 97.329582,96.511116 97.160194,97.082748 
z"/>
<path fill="#EDEDED" opacity="1.000000" stroke="none" 
	d="
M30.696896,23.904028 
	C33.593540,16.891747 37.939644,16.121666 43.682159,22.176291 
	C45.163467,23.982500 46.335056,25.270485 47.506641,26.558472 
	C50.877632,30.877676 54.248623,35.196880 57.884407,40.117794 
	C58.190193,41.510967 58.231182,42.302429 58.272179,43.093895 
	C57.496334,44.068253 56.720490,45.042614 55.513107,46.386387 
	C54.683514,47.480812 54.285461,48.205826 53.887405,48.930836 
	C52.215580,49.642517 51.581066,53.935684 48.371696,49.880234 
	C47.437717,48.784317 46.821625,48.244446 46.205536,47.704578 
	C43.016056,43.576439 39.826576,39.448303 36.354172,34.802292 
	C35.041695,33.197002 34.012135,32.109592 32.982578,31.022182 
	C32.982578,31.022182 33.000591,31.000254 32.999294,30.689297 
	C32.413353,29.806389 31.828711,29.234436 31.244066,28.662485 
	C31.165215,28.302160 31.086361,27.941837 31.000004,26.937130 
	C30.893963,25.496506 30.795429,24.700268 30.696896,23.904028 
z"/>
<path fill="#3D3D3D" opacity="1.000000" stroke="none" 
	d="
M71.961052,87.529648 
	C64.037239,87.922966 56.035030,87.922966 48.032822,87.922966 
	C47.895691,87.426697 47.758556,86.930435 47.621422,86.434166 
	C48.760628,84.895958 49.899834,83.357750 51.369324,81.688675 
	C51.427952,82.944267 51.156288,84.330711 50.815319,86.070885 
	C56.355793,86.070885 61.807358,85.993919 67.254242,86.119743 
	C68.804047,86.155548 70.340233,86.781181 71.961052,87.529648 
z"/>
<path fill="#3D3D3D" opacity="1.000000" stroke="none" 
	d="
M67.375671,61.992706 
	C68.400940,59.986790 69.786118,57.967289 71.478500,55.812191 
	C70.435654,57.777439 69.085617,59.878284 67.375671,61.992706 
z"/>
<path fill="#474747" opacity="1.000000" stroke="none" 
	d="
M28.614277,88.018753 
	C28.627905,90.090179 28.292715,92.197563 27.844419,94.701309 
	C24.800339,92.514221 26.671076,90.294952 28.614277,88.018753 
z"/>
<path fill="#474747" opacity="1.000000" stroke="none" 
	d="
M28.247551,96.933029 
	C29.754726,97.552956 31.180168,98.517830 32.803139,99.738724 
	C31.389048,99.089149 29.777433,98.183563 28.247551,96.933029 
z"/>
<path fill="#424242" opacity="1.000000" stroke="none" 
	d="
M47.624321,26.205210 
	C46.335056,25.270485 45.163467,23.982500 43.971573,22.361774 
	C45.214840,23.303337 46.478424,24.577644 47.624321,26.205210 
z"/>
<path fill="#424242" opacity="1.000000" stroke="none" 
	d="
M32.942619,31.381004 
	C34.012135,32.109592 35.041695,33.197002 36.079742,34.615631 
	C35.026375,33.877846 33.964520,32.808834 32.942619,31.381004 
z"/>
<path fill="#474747" opacity="1.000000" stroke="none" 
	d="
M85.796829,17.750566 
	C84.898499,18.668015 83.800652,19.359922 82.374214,20.062407 
	C83.229523,19.223665 84.413414,18.374346 85.796829,17.750566 
z"/>
<path fill="#454545" opacity="1.000000" stroke="none" 
	d="
M70.251450,77.935577 
	C71.212059,78.498810 72.100502,79.415688 73.006516,80.660477 
	C72.075813,80.088661 71.127556,79.188950 70.251450,77.935577 
z"/>
<path fill="#454545" opacity="1.000000" stroke="none" 
	d="
M85.247597,96.990662 
	C86.312935,97.368042 87.328743,98.127274 88.451569,99.190887 
	C87.438408,98.787682 86.318237,98.080109 85.247597,96.990662 
z"/>
<path fill="#474747" opacity="1.000000" stroke="none" 
	d="
M38.693153,75.056168 
	C38.362801,76.109886 37.673283,77.187576 36.665623,78.353546 
	C37.009651,77.321266 37.671822,76.200699 38.693153,75.056168 
z"/>
<path fill="#454545" opacity="1.000000" stroke="none" 
	d="
M94.799637,85.014435 
	C93.845551,84.450150 92.962051,83.537292 92.064713,82.297852 
	C92.990662,82.869476 93.930443,83.767670 94.799637,85.014435 
z"/>
<path fill="#424242" opacity="1.000000" stroke="none" 
	d="
M58.589970,43.060204 
	C58.231182,42.302429 58.190193,41.510967 58.150673,40.321259 
	C58.404022,40.957508 58.655891,41.992012 58.589970,43.060204 
z"/>
<path fill="#424242" opacity="1.000000" stroke="none" 
	d="
M30.401108,23.959602 
	C30.795429,24.700268 30.893963,25.496506 30.887257,26.683655 
	C30.556448,26.054768 30.330883,25.034971 30.401108,23.959602 
z"/>
<path fill="#474747" opacity="1.000000" stroke="none" 
	d="
M93.843399,26.065783 
	C93.418518,25.335714 93.258705,24.511345 93.236092,23.280781 
	C93.618355,23.906883 93.863411,24.939182 93.843399,26.065783 
z"/>
<path fill="#454545" opacity="1.000000" stroke="none" 
	d="
M92.133850,100.245529 
	C92.530502,99.777245 93.056534,99.526848 93.864761,99.380814 
	C93.519051,99.811256 92.891144,100.137337 92.133850,100.245529 
z"/>
<path fill="#454545" opacity="1.000000" stroke="none" 
	d="
M97.815201,89.013000 
	C97.162178,88.776039 96.590714,88.196541 96.025322,87.299591 
	C96.653191,87.544914 97.274979,88.107697 97.815201,89.013000 
z"/>
<path fill="#454545" opacity="1.000000" stroke="none" 
	d="
M74.189560,82.999588 
	C74.868286,83.197128 75.482613,83.741493 76.106598,84.606796 
	C75.452560,84.400635 74.788864,83.873528 74.189560,82.999588 
z"/>
<path fill="#454545" opacity="1.000000" stroke="none" 
	d="
M78.197525,87.984985 
	C78.865997,88.196198 79.467445,88.752304 80.076714,89.628471 
	C79.433189,89.408981 78.781845,88.869431 78.197525,87.984985 
z"/>
<path fill="#3D3D3D" opacity="1.000000" stroke="none" 
	d="
M75.867470,91.947266 
	C75.200546,91.748787 74.592087,91.202957 73.974289,90.338226 
	C74.618614,90.546196 75.272278,91.073051 75.867470,91.947266 
z"/>
<path fill="#454545" opacity="1.000000" stroke="none" 
	d="
M82.170685,93.021713 
	C82.834206,93.231598 83.436584,93.786224 84.036865,94.662033 
	C83.393021,94.444290 82.751282,93.905373 82.170685,93.021713 
z"/>
<path fill="#474747" opacity="1.000000" stroke="none" 
	d="
M34.727379,80.066093 
	C34.697083,80.765320 34.310207,81.485794 33.617249,82.306976 
	C33.664379,81.634239 34.017593,80.860794 34.727379,80.066093 
z"/>
<path fill="#454545" opacity="1.000000" stroke="none" 
	d="
M90.845901,79.952255 
	C90.175705,79.758141 89.562363,79.219475 88.942764,78.359627 
	C89.591927,78.561531 90.247353,79.084610 90.845901,79.952255 
z"/>
<path fill="#454545" opacity="1.000000" stroke="none" 
	d="
M97.435814,97.088348 
	C97.329582,96.511116 97.498978,95.939499 97.922287,95.195801 
	C98.021278,95.713799 97.866356,96.403877 97.435814,97.088348 
z"/>
<path fill="#3D3D3D" opacity="1.000000" stroke="none" 
	d="
M53.286278,79.939011 
	C53.336571,79.244736 53.739223,78.526558 54.452324,77.720001 
	C54.388065,78.392784 54.013351,79.153938 53.286278,79.939011 
z"/>
<path fill="#454545" opacity="1.000000" stroke="none" 
	d="
M67.163872,74.043060 
	C67.822495,74.242783 68.431381,74.787407 69.043823,75.651878 
	C68.402977,75.443794 67.758553,74.915878 67.163872,74.043060 
z"/>
<path fill="#454545" opacity="1.000000" stroke="none" 
	d="
M86.800453,74.999222 
	C86.154610,74.781960 85.561356,74.219879 84.970840,73.336685 
	C85.600060,73.561859 86.226555,74.108124 86.800453,74.999222 
z"/>
<path fill="#454545" opacity="1.000000" stroke="none" 
	d="
M65.611885,71.167206 
	C66.171394,71.516243 66.498116,72.006981 66.781685,72.797867 
	C66.285385,72.501648 65.832237,71.905281 65.611885,71.167206 
z"/>
<path fill="#424242" opacity="1.000000" stroke="none" 
	d="
M54.242641,48.908569 
	C54.285461,48.205826 54.683514,47.480812 55.395134,46.674286 
	C55.338428,47.357285 54.968151,48.121792 54.242641,48.908569 
z"/>
<path fill="#474747" opacity="1.000000" stroke="none" 
	d="
M92.716293,21.094353 
	C92.022278,20.897739 91.420067,20.345407 90.782471,19.483154 
	C91.434090,19.695032 92.121086,20.216835 92.716293,21.094353 
z"/>
<path fill="#424242" opacity="1.000000" stroke="none" 
	d="
M31.192074,29.004423 
	C31.828711,29.234436 32.413353,29.806389 32.987755,30.697098 
	C32.365040,30.459356 31.752560,29.902859 31.192074,29.004423 
z"/>
<path fill="#474747" opacity="1.000000" stroke="none" 
	d="
M74.649475,29.016153 
	C74.600517,29.704659 74.209229,30.414179 73.509384,31.202530 
	C73.569611,30.533295 73.938377,29.785233 74.649475,29.016153 
z"/>
<path fill="#474747" opacity="1.000000" stroke="none" 
	d="
M88.347839,34.983414 
	C88.393707,34.286068 88.786873,33.571865 89.494232,32.792503 
	C89.437332,33.473751 89.066223,34.220154 88.347839,34.983414 
z"/>
<path fill="#474747" opacity="1.000000" stroke="none" 
	d="
M70.713776,34.049797 
	C70.666252,34.754436 70.269623,35.469822 69.559998,36.261692 
	C69.619560,35.578964 69.992119,34.819756 70.713776,34.049797 
z"/>
<path fill="#474747" opacity="1.000000" stroke="none" 
	d="
M85.240021,38.923775 
	C85.287056,38.209282 85.689354,37.492764 86.404785,36.699924 
	C86.343712,37.389648 85.969498,38.155697 85.240021,38.923775 
z"/>
<path fill="#474747" opacity="1.000000" stroke="none" 
	d="
M67.618195,38.000351 
	C67.581306,38.693348 67.197647,39.403339 66.506485,40.195648 
	C66.556458,39.524422 66.913933,38.770878 67.618195,38.000351 
z"/>
<path fill="#474747" opacity="1.000000" stroke="none" 
	d="
M81.285004,43.951897 
	C81.338928,43.247215 81.743011,42.535206 82.460449,41.754189 
	C82.394257,42.438309 82.014709,43.191444 81.285004,43.951897 
z"/>
<path fill="#474747" opacity="1.000000" stroke="none" 
	d="
M63.712116,43.050770 
	C63.659672,43.754181 63.259315,44.470970 62.545570,45.255341 
	C62.609524,44.570000 62.986866,43.817074 63.712116,43.050770 
z"/>
<path fill="#474747" opacity="1.000000" stroke="none" 
	d="
M41.774048,71.102600 
	C41.735561,71.809982 41.338814,72.533897 40.628063,73.335449 
	C40.681305,72.648438 41.048550,71.883774 41.774048,71.102600 
z"/>
<path fill="#424242" opacity="1.000000" stroke="none" 
	d="
M46.163124,48.050308 
	C46.821625,48.244446 47.437717,48.784317 48.058098,49.643597 
	C47.415165,49.440685 46.767937,48.918362 46.163124,48.050308 
z"/>
<path fill="#474747" opacity="1.000000" stroke="none" 
	d="
M56.668430,52.033028 
	C56.635124,52.739517 56.251839,53.467941 55.552113,54.261871 
	C55.596600,53.569908 55.957527,52.812435 56.668430,52.033028 
z"/>
<path fill="#474747" opacity="1.000000" stroke="none" 
	d="
M52.721008,57.065117 
	C52.693432,57.772545 52.308384,58.495800 51.615982,59.310532 
	C51.660263,58.628319 52.011898,57.854633 52.721008,57.065117 
z"/>
<path fill="#474747" opacity="1.000000" stroke="none" 
	d="
M49.676991,61.043144 
	C49.629826,61.722961 49.236969,62.434685 48.534752,63.230072 
	C48.594028,62.567505 48.962662,61.821274 49.676991,61.043144 
z"/>
<path fill="#454545" opacity="1.000000" stroke="none" 
	d="
M78.844933,64.957619 
	C78.197006,64.743538 77.605003,64.190544 77.007668,63.318100 
	C77.635170,63.538673 78.268021,64.078682 78.844933,64.957619 
z"/>
<path fill="#3D3D3D" opacity="1.000000" stroke="none" 
	d="
M63.385666,66.998184 
	C63.434940,66.313179 63.824631,65.602661 64.524338,64.814240 
	C64.464935,65.481781 64.095505,66.227226 63.385666,66.998184 
z"/>
<path fill="#474747" opacity="1.000000" stroke="none" 
	d="
M45.715321,66.071182 
	C45.684742,66.765823 45.301498,67.489510 44.611145,68.306946 
	C44.656910,67.633865 45.009781,66.867050 45.715321,66.071182 
z"/>
<path fill="#454545" opacity="1.000000" stroke="none" 
	d="
M68.724503,66.082794 
	C68.680954,66.762726 68.289200,67.481453 67.587006,68.291016 
	C67.643143,67.628433 68.009712,66.875008 68.724503,66.082794 
z"/>
<path fill="#454545" opacity="1.000000" stroke="none" 
	d="
M82.843704,69.941345 
	C82.180756,69.752815 81.564949,69.218498 80.940170,68.363045 
	C81.584412,68.559792 82.237625,69.077675 82.843704,69.941345 
z"/>
</svg>